#!OML:ASF H:\Terrain\Patient Classification 1\PLAYGROUND\JustinFriday\JustinFriday.ASF
:FULLY-SPECIFIED
:DEGREES
439
root 13.4852 19.6846 17.8968 169.728 -4.00795 -172.596
lowerback 26.2947 2.54504 6.72513
upperback -4.08918 5.44374 -1.1225
thorax -18.2182 1.53769 -7.15692
lowerneck -0.299045 -7.63456 5.04133
upperneck 8.52052 -11.6639 6.32477
head 2.90841 -5.75725 0.864596
rclavicle 1.53064e-014 -1.59028e-015
rhumerus 111.163 2.44155 -136.793
rradius 18.2232
rwrist 45.4332
rhand 42.6336 30.3613
rfingers 7.12502
rthumb 64.539 22.4352
lclavicle 1.53064e-014 -1.59028e-015
lhumerus 101.268 -1.74371 54.4983
lradius 35.7857
lwrist -10.3928
lhand -32.4815 -2.2424
lfingers 7.12502
lthumb -5.71364 27.6606
rfemur -40.5428 -3.19572 24.1398
rtibia 73.3753
rfoot 3.661 -8.53599
rtoes 16.0079
lfemur -2.25877 -4.25011 -9.90108
ltibia 29.2568
lfoot 30.8524 -10.2767
ltoes -27.4094
440
root 13.4853 19.789 17.977 169.23 -3.93484 -172.838
lowerback 26.6297 2.61756 6.36193
upperback -3.90399 5.41588 -1.14779
thorax -18.2016 1.5627 -6.98266
lowerneck -0.171768 -7.76651 5.04526
upperneck 8.37659 -11.7982 6.22624
head 2.82977 -5.83164 0.83948
rclavicle -2.3059e-014 4.77083e-015
rhumerus 110.82 2.22083 -137.337
rradius 18.4628
rwrist 46.8796
rhand 42.2661 29.72
rfingers 7.12502
rthumb 64.245 21.3341
lclavicle -2.3059e-014 4.77083e-015
lhumerus 100.723 -2.41226 54.8819
lradius 36.041
lwrist -10.9192
lhand -32.387 -2.64669
lfingers 7.12502
lthumb -5.62238 27.2587
rfemur -42.4254 -3.88414 24.0481
rtibia 76.225
rfoot 1.60748 -7.72191
rtoes 15.7321
lfemur -2.5179 -4.73951 -9.9063
ltibia 30.0894
lfoot 30.7561 -18.2974
ltoes -32.2337
441
root 13.4862 19.9235 18.0525 168.698 -3.73289 -172.938
lowerback 27.0927 2.68527 6.18897
upperback -3.83355 5.46341 -1.16624
thorax -18.3647 1.58456 -6.95297
lowerneck 0.109553 -7.84373 4.83295
upperneck 8.27451 -11.8898 6.38362
head 2.77071 -5.89247 0.935517
rclavicle 5.42682e-014 7.95139e-015
rhumerus 110.218 1.77183 -137.807
rradius 18.9569
rwrist 48.2102
rhand 42.1469 28.8725
rfingers 7.12502
rthumb 64.1492 20.3399
lclavicle 5.42682e-014 7.95139e-015
lhumerus 100.159 -2.88201 54.7541
lradius 36.273
lwrist -10.3987
lhand -31.7589 -2.74684
lfingers 7.12502
lthumb -5.01591 27.1738
rfemur -44.1692 -4.47347 24.2195
rtibia 78.7374
rfoot -0.73217 -7.77132
rtoes 8.51634
lfemur -3.29096 -5.24354 -9.64043
ltibia 31.5696
lfoot 36.1273 -12.0341
ltoes -18.636
442
root 13.4918 20.0549 18.1266 168.273 -3.55596 -172.897
lowerback 27.6071 2.71746 6.12131
upperback -3.86212 5.5174 -1.15233
thorax -18.6691 1.58854 -6.96017
lowerneck 0.261088 -7.86397 4.80733
upperneck 8.21312 -11.8987 6.36957
head 2.72326 -5.90455 0.943688
rclavicle 2.19657e-014 0
rhumerus 109.656 1.65857 -139.206
rradius 18.7644
rwrist 49.0243
rhand 41.408 30.3996
rfingers 7.12502
rthumb 63.5516 20.9819
lclavicle 2.19657e-014 0
lhumerus 99.5293 -3.18639 54.1919
lradius 36.3439
lwrist -10.1666
lhand -31.9776 -2.64562
lfingers 7.12502
lthumb -5.22715 27.2699
rfemur -46.1234 -5.12839 24.6822
rtibia 81.0742
rfoot -3.04467 -7.73254
rtoes 8.15991
lfemur -4.89248 -4.78877 -9.18762
ltibia 33.7448
lfoot 39.327 -9.14249
ltoes -12.7504
443
root 13.4925 20.1669 18.2048 167.878 -3.35914 -172.641
lowerback 28.0539 2.70522 6.27284
upperback -3.886 5.60122 -1.05622
thorax -18.9134 1.59179 -7.00088
lowerneck 0.428812 -7.91153 5.1131
upperneck 8.05096 -11.8853 5.98308
head 2.58964 -5.90354 0.788747
rclavicle 7.14631e-014 -6.36111e-015
rhumerus 109.135 1.28141 -139.759
rradius 18.7709
rwrist 49.5868
rhand 40.8629 30.8828
rfingers 7.12502
rthumb 63.1065 20.8384
lclavicle 7.14631e-014 -6.36111e-015
lhumerus 98.9106 -3.52546 53.8354
lradius 36.3666
lwrist -10.1154
lhand -32.1828 -2.6704
lfingers 7.12502
lthumb -5.42523 27.2402
rfemur -48.2653 -5.91459 25.4908
rtibia 83.2178
rfoot -5.08977 -7.69722
rtoes 6.3795
lfemur -6.12432 -4.51013 -8.37072
ltibia 36.5928
lfoot 40.6075 -4.25238
ltoes -7.66094
444
root 13.4911 20.2764 18.2748 167.477 -3.10979 -172.577
lowerback 28.4296 2.73229 6.28349
upperback -3.84859 5.66154 -1.03969
thorax -19.0522 1.6032 -7.03471
lowerneck 0.613015 -7.99998 5.35253
upperneck 7.89409 -11.9549 5.77398
head 2.47439 -5.94584 0.699191
rclavicle -2.16675e-014 2.8625e-014
rhumerus 108.721 0.851393 -140.202
rradius 19.2085
rwrist 51.2565
rhand 40.8699 31.6261
rfingers 7.12502
rthumb 63.1122 21.5896
lclavicle -2.16675e-014 2.8625e-014
lhumerus 98.4369 -3.81832 53.4933
lradius 36.3412
lwrist -10.2388
lhand -32.4718 -2.75119
lfingers 7.12502
lthumb -5.70421 27.152
rfemur -50.4675 -6.69206 26.1818
rtibia 85.1978
rfoot -7.0238 -7.95526
rtoes 4.69446
lfemur -7.67545 -3.91188 -7.82253
ltibia 39.9236
lfoot 40.9666 -1.66373
ltoes -3.34779
445
root 13.4901 20.3953 18.3398 167.133 -2.76457 -172.451
lowerback 28.7107 2.78938 6.35208
upperback -3.79547 5.76995 -1.04964
thorax -19.1052 1.63376 -7.14141
lowerneck 0.591736 -8.09858 5.51476
upperneck 7.94746 -12.123 5.84058
head 2.49303 -6.02905 0.689065
rclavicle 6.26172e-014 0
rhumerus 108.434 0.397885 -140.526
rradius 19.138
rwrist 50.798
rhand 40.5855 32.6905
rfingers 7.12502
rthumb 62.8787 22.3355
lclavicle 6.26172e-014 0
lhumerus 98.119 -4.00128 52.851
lradius 36.3638
lwrist -10.0908
lhand -32.7796 -2.69845
lfingers 7.12502
lthumb -6.00145 27.1965
rfemur -52.7158 -7.43794 27.085
rtibia 86.9875
rfoot -9.02501 -8.24716
rtoes 4.30521
lfemur -9.50148 -2.89241 -7.20749
ltibia 43.6608
lfoot 40.848 -3.09469
ltoes -3.74306
446
root 13.4883 20.5025 18.4017 166.696 -2.32219 -172.234
lowerback 29.1355 2.83758 6.56518
upperback -3.8087 5.93536 -1.06303
thorax -19.2906 1.6597 -7.37118
lowerneck 0.61081 -8.10905 5.58539
upperneck 8.14841 -12.2104 6.0313
head 2.56926 -6.07251 0.730437
rclavicle 6.17226e-014 9.54166e-015
rhumerus 108.108 -0.0443671 -140.964
rradius 19.2177
rwrist 51.6104
rhand 40.1282 32.293
rfingers 7.12502
rthumb 62.5014 21.4377
lclavicle 6.17226e-014 9.54166e-015
lhumerus 97.7117 -4.33856 52.2127
lradius 36.4331
lwrist -9.91338
lhand -32.9866 -2.60905
lfingers 7.12502
lthumb -6.20124 27.2802
rfemur -54.9454 -8.0845 28.2068
rtibia 88.6603
rfoot -11.2652 -8.20429
rtoes 4.34302
lfemur -11.347 -1.5391 -6.40665
ltibia 47.6012
lfoot 40.0762 -4.187
ltoes -4.52022
447
root 13.484 20.59 18.4588 166.092 -2.01484 -172.333
lowerback 29.7657 2.87294 6.5649
upperback -3.72355 5.99767 -1.1143
thorax -19.4881 1.6595 -7.49152
lowerneck 0.484351 -8.06063 5.32871
upperneck 8.3168 -12.207 6.28311
head 2.68455 -6.06709 0.836816
rclavicle 3.85642e-014 -1.27222e-014
rhumerus 107.712 -0.471647 -141.144
rradius 19.2167
rwrist 51.9774
rhand 39.5809 32.2284
rfingers 7.12502
rthumb 62.0469 20.7931
lclavicle 3.85642e-014 -1.27222e-014
lhumerus 97.2561 -4.74751 52.0927
lradius 36.6207
lwrist -10.1758
lhand -33.0769 -2.54422
lfingers 7.12502
lthumb -6.28842 27.3424
rfemur -57.1044 -8.77651 28.9723
rtibia 90.1961
rfoot -12.7403 -9.19409
rtoes 3.88262
lfemur -13.0678 -0.332883 -5.99898
ltibia 51.6544
lfoot 38.3952 -6.04606
ltoes -6.8018
448
root 13.4848 20.6809 18.5142 165.503 -1.89121 -172.718
lowerback 30.3935 2.93657 6.2578
upperback -3.55842 5.95923 -1.20555
thorax -19.623 1.65265 -7.44024
lowerneck 0.244633 -8.1245 5.39638
upperneck 8.28519 -12.2664 6.07427
head 2.69614 -6.08708 0.749541
rclavicle 1.16289e-014 1.27222e-014
rhumerus 107.341 -0.799248 -141.25
rradius 19.1645
rwrist 51.7346
rhand 39.2448 32.9011
rfingers 7.12502
rthumb 61.7663 21.1192
lclavicle 1.16289e-014 1.27222e-014
lhumerus 96.8352 -5.04791 52.1633
lradius 36.9724
lwrist -10.5523
lhand -33.1046 -2.38569
lfingers 7.12502
lthumb -6.31521 27.5002
rfemur -59.2945 -9.69449 29.5469
rtibia 91.4579
rfoot -14.2112 -9.76797
rtoes 3.90887
lfemur -14.8084 0.838184 -6.02314
ltibia 55.7448
lfoot 34.9738 -12.9866
ltoes -15.0853
449
root 13.4951 20.7757 18.5698 164.987 -1.73023 -173.04
lowerback 30.9441 3.03635 5.91552
upperback -3.45761 5.95205 -1.29978
thorax -19.7964 1.65951 -7.38704
lowerneck 0.131381 -8.25513 5.70984
upperneck 8.35371 -12.417 5.69306
head 2.69127 -6.15473 0.573318
rclavicle 9.93923e-016 -2.70347e-014
rhumerus 107.061 -0.828717 -142.121
rradius 19.1657
rwrist 52.8914
rhand 38.6498 32.9734
rfingers 7.12502
rthumb 61.2668 20.5955
lclavicle 9.93923e-016 -2.70347e-014
lhumerus 96.3662 -5.34419 52.0472
lradius 37.3748
lwrist -10.6776
lhand -33.0992 -2.0663
lfingers 7.12502
lthumb -6.30995 27.8197
rfemur -61.5671 -10.5168 30.3925
rtibia 92.4925
rfoot -15.7888 -10.0443
rtoes 4.10486
lfemur -16.6875 2.19732 -5.92511
ltibia 59.8224
lfoot 32.7259 -14.8226
ltoes -17.548
450
root 13.5122 20.8563 18.6177 164.337 -1.58967 -173.214
lowerback 31.6199 3.10375 5.67215
upperback -3.37558 5.95371 -1.34041
thorax -20.0465 1.65502 -7.34046
lowerneck -0.306936 -8.21435 5.19702
upperneck 9.28202 -12.5853 6.13631
head 3.16085 -6.21536 0.736418
rclavicle 9.74045e-015 -6.36111e-015
rhumerus 106.797 -0.884448 -143.094
rradius 18.9434
rwrist 53.5224
rhand 38.0394 33.7801
rfingers 7.12502
rthumb 60.751 20.8131
lclavicle 9.74045e-015 -6.36111e-015
lhumerus 95.8456 -5.70215 51.9331
lradius 37.7328
lwrist -10.6444
lhand -32.9916 -1.71886
lfingers 7.12502
lthumb -6.20606 28.1702
rfemur -63.7415 -10.9386 31.3215
rtibia 93.4138
rfoot -16.9951 -10.8351
rtoes 3.21428
lfemur -18.5277 3.53676 -5.52216
ltibia 64.0936
lfoot 31.3541 -12.2655
ltoes -13.6244
